<?xml version="1.0" encoding="UTF-8" standalone="no"?>
<!DOCTYPE svg PUBLIC "-//W3C//DTD SVG 1.1//EN" "http://www.w3.org/Graphics/SVG/1.1/DTD/svg11.dtd">
<!-- Created with Vectornator (http://vectornator.io/) -->
<svg height="100%" stroke-miterlimit="10" style="fill-rule:nonzero;clip-rule:evenodd;stroke-linecap:round;stroke-linejoin:round;" version="1.1" viewBox="0 0 100 100" width="100%" xml:space="preserve" xmlns="http://www.w3.org/2000/svg" xmlns:vectornator="http://vectornator.io" xmlns:xlink="http://www.w3.org/1999/xlink">
<defs/>
<clipPath id="ArtboardFrame">
<rect height="100" width="100" x="0" y="0"/>
</clipPath>
<g clip-path="url(#ArtboardFrame)" id="Untitled" vectornator:layerName="Untitled">
<path d="M61.35 0.227L6.017 4.314C1.553 4.7 0 7.617 0 11.113L0 71.773C0 74.496 0.967 76.826 3.3 79.94L16.307 96.853C18.444 99.576 20.387 100.16 24.467 99.966L88.724 96.076C94.157 95.689 95.714 93.159 95.714 88.883L95.714 20.64C95.714 18.43 94.841 17.793 92.271 15.907L74.167 3.143C69.894 0.036 68.147-0.357 61.35 0.226L61.35 0.227ZM25.92 19.523C20.673 19.876 19.483 19.956 16.503 17.533L8.927 11.507C8.157 10.727 8.544 9.754 10.484 9.56L63.677 5.673C68.144 5.283 70.47 6.84 72.217 8.2L81.34 14.81C81.73 15.007 82.7 16.17 81.533 16.17L26.6 19.477L25.92 19.524L25.92 19.523ZM19.803 88.3L19.803 30.367C19.803 27.837 20.58 26.67 22.906 26.474L86 22.78C88.14 22.587 89.107 23.947 89.107 26.473L89.107 84.02C89.107 86.55 88.717 88.69 85.224 88.883L24.847 92.383C21.354 92.576 19.804 91.413 19.804 88.3L19.803 88.3ZM79.403 33.473C79.79 35.223 79.403 36.973 77.653 37.173L74.743 37.75L74.743 80.523C72.216 81.883 69.89 82.66 67.946 82.66C64.839 82.66 64.063 81.687 61.736 78.773L42.706 48.833L42.706 77.8L48.726 79.163C48.726 79.163 48.726 82.663 43.869 82.663L30.479 83.44C30.089 82.66 30.479 80.717 31.836 80.33L35.333 79.36L35.333 41.06L30.48 40.667C30.09 38.917 31.06 36.39 33.78 36.194L48.147 35.227L67.947 65.554L67.947 38.724L62.9 38.144C62.51 36.001 64.063 34.444 66.003 34.254L79.403 33.474L79.403 33.473Z" fill="#ffffff" fill-rule="evenodd" opacity="1" stroke="none" vectornator:layerName="path"/>
</g>
</svg>
